<svg width="512" height="512" viewBox="0 0 512 512" fill="none" xmlns="http://www.w3.org/2000/svg">
  <defs>
    <linearGradient id="bg" x1="36" y1="30" x2="478" y2="482" gradientUnits="userSpaceOnUse">
      <stop offset="0" stop-color="#F8FBFF"/>
      <stop offset="0.34" stop-color="#DDF7FF"/>
      <stop offset="0.68" stop-color="#E9DDFF"/>
      <stop offset="1" stop-color="#FFF2C7"/>
    </linearGradient>
    <radialGradient id="shine" cx="0.22" cy="0.18" r="0.78">
      <stop offset="0" stop-color="#FFFFFF" stop-opacity="0.95"/>
      <stop offset="0.52" stop-color="#FFFFFF" stop-opacity="0.28"/>
      <stop offset="1" stop-color="#FFFFFF" stop-opacity="0"/>
    </radialGradient>
    <linearGradient id="edgeExec" x1="92" y1="100" x2="414" y2="274" gradientUnits="userSpaceOnUse">
      <stop offset="0" stop-color="#2563EB"/>
      <stop offset="0.5" stop-color="#8B5CF6"/>
      <stop offset="1" stop-color="#14B8A6"/>
    </linearGradient>
    <linearGradient id="edgeData" x1="104" y1="254" x2="398" y2="410" gradientUnits="userSpaceOnUse">
      <stop offset="0" stop-color="#06B6D4"/>
      <stop offset="0.54" stop-color="#10B981"/>
      <stop offset="1" stop-color="#F59E0B"/>
    </linearGradient>
    <radialGradient id="nodeBlue" cx="0.35" cy="0.28" r="0.88">
      <stop offset="0" stop-color="#93C5FD"/>
      <stop offset="0.56" stop-color="#3B82F6"/>
      <stop offset="1" stop-color="#1D4ED8"/>
    </radialGradient>
    <radialGradient id="nodeTeal" cx="0.35" cy="0.28" r="0.88">
      <stop offset="0" stop-color="#99F6E4"/>
      <stop offset="0.56" stop-color="#14B8A6"/>
      <stop offset="1" stop-color="#0F766E"/>
    </radialGradient>
    <radialGradient id="nodeViolet" cx="0.35" cy="0.28" r="0.88">
      <stop offset="0" stop-color="#DDD6FE"/>
      <stop offset="0.56" stop-color="#8B5CF6"/>
      <stop offset="1" stop-color="#6D28D9"/>
    </radialGradient>
    <radialGradient id="nodeAmber" cx="0.35" cy="0.28" r="0.88">
      <stop offset="0" stop-color="#FDE68A"/>
      <stop offset="0.56" stop-color="#F59E0B"/>
      <stop offset="1" stop-color="#D97706"/>
    </radialGradient>
    <filter id="softShadow" x="-45%" y="-45%" width="190%" height="190%" color-interpolation-filters="sRGB">
      <feDropShadow dx="0" dy="14" stdDeviation="18" flood-color="#2563EB" flood-opacity="0.18"/>
    </filter>
    <filter id="nodeShadow" x="-60%" y="-60%" width="220%" height="220%" color-interpolation-filters="sRGB">
      <feDropShadow dx="0" dy="8" stdDeviation="10" flood-color="#2563EB" flood-opacity="0.24"/>
    </filter>
  </defs>

  <rect x="16" y="16" width="480" height="480" rx="112" fill="url(#bg)"/>
  <rect x="16" y="16" width="480" height="480" rx="112" fill="url(#shine)"/>
  <path d="M32 392 C122 318 162 448 257 369 C333 306 381 350 480 276 V496 H32 Z" fill="#22D3EE" fill-opacity="0.12"/>
  <path d="M42 120 C108 72 175 88 234 142 C303 205 382 184 470 92" stroke="#8B5CF6" stroke-opacity="0.13" stroke-width="28" stroke-linecap="round"/>

  <g stroke="#2563EB" stroke-opacity="0.1" stroke-width="1.4">
    <path d="M128 72 V440 M256 72 V440 M384 72 V440"/>
    <path d="M72 160 H440 M72 256 H440 M72 352 H440"/>
  </g>
  <rect x="17.5" y="17.5" width="477" height="477" rx="110.5" fill="none" stroke="#2563EB" stroke-opacity="0.22" stroke-width="3"/>
  <rect x="26.5" y="26.5" width="459" height="459" rx="101.5" fill="none" stroke="#FFFFFF" stroke-opacity="0.62" stroke-width="2"/>

  <g filter="url(#softShadow)" stroke-linecap="round" stroke-linejoin="round">
    <path d="M256 116 C218 151 172 196 124 250 M256 116 C256 158 256 198 256 238 M256 116 C294 151 340 196 388 250" stroke="#FFFFFF" stroke-opacity="0.9" stroke-width="18"/>
    <path d="M124 262 C168 304 211 356 256 398 M256 274 V398 M388 262 C344 304 301 356 256 398" stroke="#FFFFFF" stroke-opacity="0.9" stroke-width="16"/>
    <path d="M256 116 C218 151 172 196 124 250 M256 116 C256 158 256 198 256 238 M256 116 C294 151 340 196 388 250" stroke="url(#edgeExec)" stroke-width="8"/>
    <path d="M124 262 C168 304 211 356 256 398 M256 274 V398 M388 262 C344 304 301 356 256 398" stroke="url(#edgeData)" stroke-width="7"/>
  </g>

  <g fill="#2563EB" fill-opacity="0.8">
    <circle cx="190" cy="179" r="4"/>
    <circle cx="256" cy="181" r="4"/>
    <circle cx="322" cy="179" r="4"/>
  </g>
  <g fill="#0F766E" fill-opacity="0.72">
    <circle cx="190" cy="333" r="3.6"/>
    <circle cx="256" cy="337" r="3.6"/>
    <circle cx="322" cy="333" r="3.6"/>
  </g>

  <g filter="url(#nodeShadow)">
    <circle cx="256" cy="116" r="41" fill="#FFFFFF"/>
    <circle cx="256" cy="116" r="35" fill="#EEF2FF" stroke="url(#nodeViolet)" stroke-width="9"/>
    <path d="M245 98 L245 134 L276 116 Z" fill="url(#nodeViolet)"/>

    <circle cx="124" cy="256" r="34" fill="#FFFFFF"/>
    <circle cx="124" cy="256" r="27" fill="#ECFEFF" stroke="url(#nodeTeal)" stroke-width="8"/>
    <circle cx="124" cy="256" r="10" fill="url(#nodeTeal)"/>

    <circle cx="256" cy="256" r="34" fill="#FFFFFF"/>
    <circle cx="256" cy="256" r="27" fill="#EFF6FF" stroke="url(#nodeBlue)" stroke-width="8"/>
    <circle cx="256" cy="256" r="10" fill="url(#nodeBlue)"/>

    <circle cx="388" cy="256" r="34" fill="#FFFFFF"/>
    <circle cx="388" cy="256" r="27" fill="#FFFBEB" stroke="url(#nodeAmber)" stroke-width="8"/>
    <circle cx="388" cy="256" r="10" fill="url(#nodeAmber)"/>

    <circle cx="256" cy="398" r="41" fill="#FFFFFF"/>
    <circle cx="256" cy="398" r="35" fill="#ECFDF5" stroke="url(#nodeTeal)" stroke-width="9"/>
    <path d="M238 397 L251 410 L276 384" stroke="url(#nodeTeal)" stroke-width="9" stroke-linecap="round" stroke-linejoin="round"/>
  </g>
</svg>
